<svg width="512" height="512" viewBox="0 0 512 512" fill="none" xmlns="http://www.w3.org/2000/svg">
<path d="M256 485.333C195.177 485.333 136.845 461.172 93.8368 418.163C50.8285 375.155 26.6666 316.823 26.6666 256C26.6666 195.177 50.8285 136.845 93.8368 93.8369C136.845 50.8286 195.177 26.6668 256 26.6668C291.739 26.5484 326.991 34.9591 358.827 51.2001C360.704 52.1526 362.375 53.4655 363.744 55.0638C365.114 56.6622 366.155 58.5146 366.809 60.5154C367.463 62.5162 367.716 64.6261 367.554 66.7248C367.393 68.8235 366.819 70.8697 365.867 72.7468C364.914 74.6238 363.601 76.2948 362.003 77.6645C360.405 79.0341 358.552 80.0755 356.551 80.7292C354.551 81.3829 352.441 81.6362 350.342 81.4745C348.243 81.3128 346.197 80.7393 344.32 79.7868C317.011 65.7118 286.723 58.3959 256 58.4534C216.98 58.4534 178.836 70.0215 146.39 91.6953C113.943 113.369 88.6502 144.176 73.7082 180.221C58.7663 216.267 54.846 255.933 62.4429 294.206C70.0397 332.479 88.8128 367.641 116.389 395.247C143.965 422.853 179.107 441.664 217.372 449.302C255.636 456.941 295.307 453.063 331.368 438.16C367.43 423.257 398.264 397.998 419.973 365.574C441.682 333.151 453.291 295.02 453.333 256C453.445 254.224 453.445 252.443 453.333 250.667C452.937 246.423 454.243 242.196 456.964 238.916C459.684 235.635 463.597 233.57 467.84 233.173C472.083 232.777 476.31 234.083 479.591 236.804C482.872 239.524 484.937 243.437 485.333 247.68V256C485.277 316.806 461.097 375.105 418.101 418.101C375.105 461.097 316.806 485.277 256 485.333Z" fill="#00C607"/>
<path d="M252.16 328.747C250.086 328.778 248.029 328.376 246.119 327.568C244.209 326.76 242.489 325.563 241.067 324.053L138.027 222.933C135.03 219.933 133.347 215.867 133.347 211.627C133.347 207.387 135.03 203.32 138.027 200.32C141.089 197.361 145.181 195.707 149.44 195.707C153.699 195.707 157.791 197.361 160.853 200.32L252.373 290.56L458.24 88.1068C461.303 85.1479 465.395 83.4941 469.653 83.4941C473.912 83.4941 478.004 85.1479 481.067 88.1068C484.063 91.1068 485.746 95.1734 485.746 99.4134C485.746 103.653 484.063 107.72 481.067 110.72L263.893 324.053C262.366 325.602 260.536 326.818 258.517 327.625C256.498 328.433 254.334 328.815 252.16 328.747Z" fill="#00C607"/>
</svg>
