<svg width="450" height="396" viewBox="0 0 450 396" fill="none" xmlns="http://www.w3.org/2000/svg">
<path d="M205.295 395.751C203.937 395.751 202.593 395.47 201.349 394.925C200.105 394.381 198.987 393.585 198.065 392.588L3.12384 181.717C1.82431 180.312 0.962805 178.557 0.644761 176.67C0.326717 174.782 0.565929 172.842 1.33312 171.088C2.10031 169.334 3.36221 167.842 4.96436 166.794C6.56651 165.746 8.43942 165.188 10.3539 165.188H104.188C105.597 165.188 106.989 165.49 108.271 166.074C109.553 166.659 110.695 167.511 111.62 168.574L176.77 243.527C183.811 228.476 197.441 203.415 221.359 172.879C256.718 127.734 322.489 61.3403 435.015 1.40483C437.189 0.246647 439.72 -0.0539474 442.105 0.562405C444.491 1.17876 446.559 2.66725 447.901 4.73397C449.243 6.80068 449.761 9.29539 449.353 11.7255C448.945 14.1556 447.641 16.3444 445.698 17.8597C445.268 18.1955 401.882 52.3616 351.95 114.943C305.996 172.533 244.909 266.702 214.85 388.272C214.322 390.408 213.093 392.305 211.361 393.662C209.629 395.018 207.492 395.755 205.292 395.755L205.295 395.751Z" fill="#F9F9F9" fill-opacity="0.8"/>
</svg>
